# xmcd CD database file
#
# Track frame offsets:
#	150
#	21331
#	48037
#	61813
#	80321
#	93204
#	110123
#	123172
#	142818
#
# Disc length: 2123 seconds
#
# Revision: 0
# Processed by: cddbd v1.5.1PL0 Copyright (c) Steve Scherf et al.
# Submitted via: CDex 1.50beta8
#
DISCID=67084909
DTITLE=Ernest Ranglin - Guitar in Ernest
DYEAR=1965
DGENRE=Jazz
TTITLE0=Soul de Ern
TTITLE1=Cherokee
TTITLE2=Ernest's Tune
TTITLE3=Green Dolphin St.
TTITLE4=Jordu
TTITLE5=Ernest's Delight
TTITLE6=One for Robby
TTITLE7=Angelima
TTITLE8=Chow Mein
EXTD=YEAR: 1965
EXTT0=
EXTT1=
EXTT2=
EXTT3=
EXTT4=
EXTT5=
EXTT6=
EXTT7=
EXTT8=
PLAYORDER=
